<?xml version="1.0" encoding="utf-8"?>
<!-- Generator: Adobe Illustrator 24.3.0, SVG Export Plug-In . SVG Version: 6.00 Build 0)  -->
<svg version="1.1" id="OBJECTS" xmlns="http://www.w3.org/2000/svg" xmlns:xlink="http://www.w3.org/1999/xlink" x="0px" y="0px"
	 viewBox="0 0 151.3 86.4" style="enable-background:new 0 0 151.3 86.4;" xml:space="preserve">
<style type="text/css">
	.st0{fill:#07070A;}
	.st1{fill:#ED6068;}
</style>
<g>
	<g>
		<path class="st0" d="M3.6,33.9c-0.5-0.2-0.8-0.6-0.8-1.2c0.1-0.7,0.1-1.4,0.1-2.2c0-1.2,0.1-2.4,0.2-3.6c0.1-2.3,0.1-4.6,0.1-6.9
			c0-2.1,0-4.1,0-6.2c0-1.9,0.1-3.7,0.1-5.6c0-0.8,0-1.7,0-2.6c0-1.6-0.1-3.2,0-4.7c0-0.3,0.2-0.6,0.5-0.7c0.2,0,0.5-0.1,0.7-0.1
			C5.4,0.2,6.3,0.4,7,1c0.4,0.3,0.6,0.7,0.6,1.2c-0.1,0.7,0,1.4,0,2H7.5c0.1,1.6,0.1,3.1,0.1,4.6c0,1.1-0.1,2.2-0.1,3.3v4.7
			c0,2.1,0,4.3-0.1,6.4c0,1.4-0.1,2.9-0.1,4.2c-0.1,0.8-0.1,1.7-0.2,2.6C7,30.5,7,31,7,31.5c0,0.3,0.1,0.4,0.3,0.4c0.3,0,0.6,0,1,0
			c0.6,0,1.3-0.1,1.9-0.2c0.7,0,1.5,0,2.2,0.1c0.2,0,0.4,0.1,0.6,0.3c0.3,0.2,0.3,0.5,0.1,0.7c-0.1,0.1-0.2,0.3-0.4,0.3
			c-0.3,0.1-0.7,0.3-1,0.4c-0.6,0.1-1.3,0.2-1.9,0.2c-0.9,0.1-1.7,0.2-2.6,0.2s-1.8,0-2.7,0C4.4,34.2,4,34,3.6,33.9z"/>
		<path class="st0" d="M21,34.3c-0.4-0.1-0.9-0.3-1.3-0.5c-0.6-0.2-0.9-0.7-1-1.4c0-0.4-0.1-0.8-0.1-1.2c-0.1-1.5-0.1-2.9-0.2-4.4
			c0-1.3,0-2.6,0-3.9v-0.1h-0.1c0-1.3,0.1-2.5,0-3.7c-0.1-1.5-0.1-3-0.1-4.4c0-1.2,0-2.3,0-3.5c0-0.6,0.1-1.2,0.1-1.8
			c0.1-0.2,0.1-0.3,0.1-0.5c0.1-0.7,0.1-1.4,0.2-2.1c0.1-0.6,0.3-0.8,1-0.8c1.2-0.1,2.3-0.1,3.5,0c0.7,0.1,1.4,0.1,2.1,0.2
			c0.5,0,1,0.1,1.5,0.2c0.2,0,0.4,0.2,0.6,0.3c0.2,0.2,0.2,0.5-0.1,0.7c-0.1,0-0.1,0-0.2,0c-1,0.3-2.1,0.5-3.2,0.3
			c-0.5-0.1-0.9-0.1-1.4-0.1c-0.2,0-0.3,0.1-0.2,0.3l0.1,1c0.2,1.4,0.2,2.8,0.2,4.2v3.6c0,0.4,0,0.4,0.5,0.4c0.2,0,0.5,0,0.8-0.1
			h1.5c0.3,0,0.7,0,1.1,0.1l0.4,0.1c0.4,0.2,0.5,0.5,0.1,0.8c-0.2,0.1-0.4,0.2-0.6,0.2c-0.8,0.1-1.6,0.2-2.4,0.4l-1,0.1
			c-0.1,0-0.2,0.1-0.2,0.3v0.3c0,2.4,0,4.8,0,7.2c0,1.3,0.1,2.7,0.1,4c0,0.2,0.1,0.5,0.1,0.7c0,0.4,0.2,0.5,0.5,0.6
			c0.1,0,0.2,0,0.4,0c0.7,0,1.4,0,2.1,0.1c0.4,0,0.7,0.1,1.1,0.2c0.1,0,0.3,0.1,0.4,0.2c0.1,0.1,0.2,0.3,0.1,0.5s-0.2,0.3-0.4,0.5
			c-0.4,0.3-0.9,0.5-1.4,0.6c-1.1,0.2-2.3,0.4-3.4,0.2C22,34.4,21.5,34.4,21,34.3z"/>
		<path class="st0" d="M37.1,34c-0.3-0.1-0.5-0.3-0.6-0.7l-0.1-1.4v-1.5l0,0c0-2.1,0.1-4.2,0.1-6.3c0-1.5-0.1-3-0.1-4.5
			c0.1-1.5,0.1-3,0.2-4.5c0.1-2,0.2-3.9,0.1-5.9c0-0.3,0.1-0.6,0.1-0.9c0-0.2-0.1-0.3-0.3-0.3c-0.7,0.1-1.5,0-2.2,0
			c-0.4,0-0.8-0.1-1.2-0.3c-0.3-0.2-0.7-0.4-0.6-0.8s0.5-0.5,0.8-0.6c0.3-0.1,0.7-0.1,1.1-0.1c1.7,0,3.5-0.1,5.2-0.1
			c0.6,0,1.2,0.1,1.9,0.1c0.6,0,1.1,0,1.7,0c0.5,0,1,0.1,1.5,0.3c0.1,0.1,0.3,0.2,0.4,0.3C45.3,7,45.3,7.4,45,7.5
			c-0.2,0.1-0.5,0.2-0.7,0.2s-0.5,0-0.7,0c-0.8-0.1-1.7,0.1-2.5,0.1c-0.2,0-0.2,0.1-0.2,0.2c0.3,0.7,0.3,1.4,0.3,2.2
			c0,1.2,0.1,2.5,0,3.7c-0.1,1.6-0.1,3.2-0.1,4.8c-0.1,0.7,0,1.5,0,2.2c0,1.3,0,2.7,0,4.1c0,1.6-0.1,3.2-0.2,4.8v0.9
			c0,0.6-0.1,1.2-0.2,1.8c0,0.4-0.3,0.7-0.6,0.9c-0.8,0.4-1.6,0.6-2.5,0.6C37.3,34.1,37.2,34,37.1,34z"/>
		<path class="st0" d="M50.2,9.1c-0.3-0.4-0.4-0.8-0.4-1.4c0.1-0.3,0.1-0.7,0.2-1c0.4-1.5,0.8-3.1,1.2-4.6c0.1-0.1,0.1-0.2,0.1-0.3
			c0.1-0.4,0.4-0.6,0.8-0.5c0.5,0.1,1,0.3,1.4,0.6c0.3,0.3,0.4,0.7,0.3,1.2L53.3,5l-1,2.8c-0.1,0.3-0.2,0.6-0.4,0.8
			c-0.2,0.4-0.6,0.6-1.1,0.6C50.6,9.4,50.4,9.3,50.2,9.1z"/>
		<path class="st0" d="M61.6,34.5c-0.9-0.4-1.7-1-2.3-1.8c-0.3-0.4-0.4-0.9-0.4-1.4l0.2-1.3c0.1-0.4,0.3-0.6,0.7-0.8
			c0.6-0.2,1.3-0.2,1.9,0c0.4,0.1,0.7,0.4,0.7,0.8v0.7c0.1,0.9,0.6,1.6,1.4,2.2c0.1,0.1,0.2,0.1,0.4,0c1-0.4,1.7-1.2,1.9-2.3
			c0.1-0.5,0-1-0.3-1.5l-0.1-0.2c-0.7-0.7-1.4-1.4-2.2-1.9s-1.5-1-2.2-1.5c-1.4-1.1-2.1-2.5-2.4-4.1c-0.1-0.9-0.2-1.8-0.3-2.7
			c0-1,0-2,0.1-3c0.1-1.2,0.3-2.4,0.6-3.5c0.4-1.7,1.1-3.3,2.2-4.6c0.9-1.2,2.2-1.8,3.7-1.8c1,0,2,0.2,3,0.7
			c1.4,0.6,2.1,1.8,2.2,3.3c0.1,1.1,0,2.2-0.1,3.2c-0.1,0.7-0.2,1.5-0.3,2.2c-0.1,1-0.4,2-0.9,2.9c-0.1,0.3-0.4,0.5-0.7,0.6
			c-0.7,0.1-1.4,0-2.1-0.3c-0.5-0.2-0.7-0.6-0.7-1.1c0-0.4-0.1-0.7-0.1-1.1c-0.1-1.4,0.2-2.7,0.3-4c0.1-0.8,0.1-1.7,0.1-2.5V8.9
			c-0.1-0.1-0.1-0.1-0.2-0.1c-0.2,0.2-0.4,0.4-0.5,0.6c-0.8,1.2-1.3,2.5-1.6,3.9s-0.5,2.9-0.6,4.3c0,0.8,0,1.6,0.1,2.5
			c0,0.4,0,0.8,0.1,1.2c0.2,1.4,1,2.4,2.1,3.3c0.4,0.3,1,0.7,1.5,1s0.9,0.6,1.4,1c0.9,0.6,1.3,1.6,1.4,2.6c0.2,1.8-0.4,3.3-1.8,4.3
			c-0.8,0.6-1.7,1.1-2.8,1.3C63.9,35,62.7,35,61.6,34.5z"/>
		<path class="st0" d="M95.8,33.7c-0.2-0.1-0.4-0.3-0.4-0.5s-0.1-0.4-0.1-0.6c0-1.1-0.1-2.3-0.1-3.5c-0.1-1.5-0.1-3.1-0.1-4.7
			c0-1.4,0.1-2.7,0.1-4.1c0-4.4,0-8.8,0-13.2c0-1.4,0.1-2.8,0.1-4.1V2.8c0-0.4-0.1-0.4-0.5-0.4c-0.9-0.1-1.8,0-2.8,0
			c-0.6,0-1.1-0.1-1.7-0.4c-0.2-0.1-0.3-0.2-0.5-0.3c-0.4-0.4-0.3-0.7,0.1-0.9c0.2-0.1,0.5-0.1,0.7-0.2c1.3-0.2,2.7-0.2,4-0.2
			s2.6-0.2,3.9-0.2H99c1,0,2.1,0,3.2,0c0.6,0,1.3,0.2,1.9,0.5c0.2,0.1,0.4,0.2,0.6,0.4c0.3,0.3,0.2,0.7-0.1,0.8
			c-0.1,0-0.2,0.1-0.4,0.1h-0.5c-1.2,0-2.5-0.1-3.7,0.1c-0.3,0-0.4,0-0.4,0.4v4.6v4l0,0v8.1c0,1.4-0.1,2.8-0.1,4.2
			c-0.1,0.9,0,1.8,0,2.7c0,0.2,0,0.4,0,0.6c0,1.7,0,3.3,0.1,4.9c0,0.7-0.2,1.2-0.8,1.6c-0.7,0.4-1.4,0.7-2.2,0.7
			C96.3,33.9,96.1,33.8,95.8,33.7z"/>
		<path class="st0" d="M114.9,33.6c-0.1-0.4-0.3-0.8-0.3-1.2c-0.1-0.4-0.1-0.8-0.1-1.2c-0.1-1.5-0.1-2.9-0.1-4.3
			c0-1.1,0-2.3-0.1-3.5c0-0.2,0-0.2-0.2-0.2h-1.5l-1.9,0.1c-0.2,0-0.3,0.1-0.3,0.3c0,0.4-0.1,0.9-0.1,1.3c-0.1,1.5-0.1,2.9-0.2,4.4
			c-0.1,1-0.1,2-0.3,3c0,0.2-0.1,0.4-0.2,0.6c-0.1,0.2-0.2,0.4-0.4,0.5c-0.5,0.3-1.1,0.4-1.7,0.1c-0.3-0.1-0.5-0.2-0.6-0.5
			c-0.1-0.2-0.1-0.5-0.1-0.7c0-0.9,0-1.7,0-2.6c0-0.4,0.1-0.7,0.1-1.1c0-1.3,0-2.6,0-3.9c0.1-1.5,0.1-3,0.2-4.4
			c0.1-0.8,0.1-1.5,0.1-2.3c0.2-2.1,0.4-4.2,1-6.3c0.4-1.7,1.1-3.2,2.2-4.5c0.7-0.9,1.6-1.5,2.8-1.6c1.5-0.1,3,0.2,4.1,1.3
			c0.4,0.4,0.7,0.8,0.8,1.4c0.3,0.9,0.4,1.8,0.5,2.8c0.1,1.7,0.2,3.5,0.3,5.2c0,0.4,0.1,0.8,0.1,1.2c0,0.5-0.1,1-0.1,1.6
			c0,0.9,0,1.9,0,2.9c-0.1,1.5-0.1,3-0.1,4.5c0,1.2,0.1,2.5,0.1,3.7c0,0.7,0,1.5-0.1,2.2c-0.1,1-0.6,1.7-1.7,1.9
			c-0.4,0.1-0.9,0.2-1.4,0.1C115.2,34.1,115,34,114.9,33.6z M112.3,21.6L112.3,21.6l1.1,0.1c0.2,0,0.3,0,0.5,0s0.3-0.1,0.3-0.3
			c0-0.1,0-0.2,0-0.4v-2.7c0-0.3,0.1-0.7,0-1.1c0-1.7-0.1-3.4-0.2-5.1l-0.1-2.2c-0.1-0.6-0.2-1.2-0.4-1.8C113.4,8,113.4,8,113.3,8h0
			c-0.8,1-1.4,2-1.8,3.2c-0.5,1.7-0.7,3.4-0.8,5.2c-0.1,0.7-0.1,1.5-0.2,2.3c0,0.9-0.1,1.7-0.2,2.6v0.3c0,0.1,0.1,0.2,0.2,0.2
			C111.1,21.7,111.7,21.7,112.3,21.6z"/>
		<path class="st0" d="M126.5,34.3l-1.4-0.1c-0.1,0-0.2,0-0.4-0.1c-0.7-0.2-1-0.6-1.1-1.5c0-1.2,0-2.4,0-3.6c0-2-0.1-3.9-0.1-5.9
			c0-2.9,0-5.7,0.1-8.6c0-1.5,0.1-3.1,0.1-4.6c0-0.9,0.1-1.9,0.2-2.8c0-0.1,0-0.3,0.1-0.4c0.2-0.7,0.7-1,1.4-0.9
			c0.5,0,1,0.1,1.4,0.4c0.3,0.1,0.6,0.4,0.7,0.8c0.2,0.9,0.4,1.8,0.5,2.7c0.1,1.5,0.1,3.1,0.1,4.6c-0.1,1.7-0.1,3.4-0.1,5.1v8.9
			c0,0.5,0.1,1.1,0.1,1.6S128,31,128,31.5c0,0.7-0.1,0.7,0.7,0.7h2c0.6,0,1.2,0,1.8,0.1c0.2,0,0.4,0.1,0.6,0.2
			c0.3,0.2,0.3,0.5,0.1,0.8c-0.1,0.1-0.3,0.3-0.5,0.4c-0.8,0.5-1.7,0.6-2.6,0.6h-0.9c-0.5,0-0.9,0-1.4,0
			C127.3,34.4,126.9,34.4,126.5,34.3z"/>
		<path class="st0" d="M139.5,34.4c-0.9-0.3-1.3-0.9-1.3-1.8c-0.1-1,0-2-0.1-3c0-0.8-0.1-1.6-0.1-2.5c0-1,0-2,0-3
			c0-1.6-0.1-3.1-0.1-4.6c0-2.2,0-4.3,0-6.4c0-1.6,0-3.2,0-4.7c0-0.5,0-1,0.1-1.6c0.1-0.4,0.3-0.6,0.7-0.7C138.9,6,139,6,139.2,6
			c0.4,0,0.9,0,1.3,0.1c0.8,0.2,1.3,0.7,1.5,1.5c0.1,0.6,0.2,1.2,0.3,1.8v4.5v0.7c0.2-0.3,0.3-0.5,0.4-0.7c0.6-1.3,1.2-2.6,2-3.8
			l1.5-2.4l0.3-0.5c0.1-0.4,0.5-0.7,1-0.8c0.5-0.1,1-0.1,1.4,0.1s0.5,0.5,0.2,0.9c-0.6,1.1-1.1,2.3-1.8,3.4c-0.6,0.9-1,2-1.5,3
			c-0.3,0.6-0.7,1.3-1,2c-0.3,0.5-0.3,0.5,0.2,0.6c0.6,0.2,1.2,0.5,1.7,0.9c0.4,0.3,0.8,0.8,1,1.4c0.4,1,0.6,2,0.8,3.1
			c0.2,1.3,0.3,2.6,0.4,3.8c0,1.2,0.2,2.4,0.3,3.6c0,0.8,0.1,1.6,0.1,2.4c0,0.5-0.1,1-0.1,1.6c0,0.2-0.1,0.4-0.3,0.5
			c-0.2,0.1-0.3,0.2-0.5,0.2c-0.8,0.3-1.7,0.2-2.6,0c-0.5-0.2-0.8-0.5-0.8-1.1l-0.3-3.8c-0.1-1.2-0.2-2.4-0.3-3.6l-0.3-3
			c-0.1-1.2-0.4-2.4-0.8-3.5c-0.1-0.3-0.3-0.6-0.7-0.8c-0.2-0.1-0.3-0.1-0.3,0.1v0.5c0,2.4,0,4.8,0.1,7.2c0,1.1,0.1,2.3,0.1,3.4
			c0,0.8,0,1.7,0,2.5v0.8c0,0.9-0.5,1.5-1.4,1.6C140.6,34.6,140,34.6,139.5,34.4z"/>
	</g>
	<g>
		<path class="st1" d="M6.2,85.3c-1.2-0.2-2.3-0.5-3.3-1C2.3,84,1.8,83.6,1.5,83C1,82.3,1,81.7,1.7,81.2c0.9-0.8,1.9-1.1,3-1.2
			c0.5,0,0.9,0.2,1.3,0.5c0.8,0.7,1.5,1.5,2.6,1.7c0.8,0.2,1.5,0.1,2-0.4c1-0.9,1.8-1.9,2.1-3.2c0.2-0.9,0.1-1.6-0.4-2.3
			c-0.4-0.6-0.9-1.1-1.5-1.5c-1.1-0.8-2.3-1.5-3.4-2.3c-0.6-0.4-1.2-0.7-1.7-1.1c-2.4-1.8-4.2-4.2-4.8-7.1c-0.3-1.5-0.6-3-0.8-4.6
			C0,58.8,0,57.9,0,56.9c0-4,0.9-7.9,2.8-11.5c0.7-1.2,1.3-2.2,2.3-3.2c0.8-0.8,1.7-1.5,2.8-1.9c1.3-0.5,2.6-0.7,4-0.5
			c0.8,0.1,1.6,0.3,2.4,0.5c1,0.3,1.8,0.7,2.6,1.3c1,0.7,1.5,1.8,1.7,3c0.3,1.6,0.1,3.2-0.1,4.7c-0.1,1.5-0.4,3-0.6,4.4
			c-0.2,1.1-0.5,2.2-0.7,3.3c-0.1,0.5-0.3,1-0.5,1.5c-0.2,0.4-0.5,0.7-0.9,0.9c-1.2,0.6-2.4,0.5-3.5-0.1c-0.7-0.3-1.2-0.9-1.1-1.8
			c0.2-0.9,0.3-1.8,0.5-2.8l0.6-3.8l0.4-3c0.2-1.3,0.2-2.4,0.1-3.7c0-0.1,0-0.1-0.1-0.2c-0.3-1.3-0.2-1.4-1.4-0.6
			c-0.9,0.6-1.5,1.4-2.1,2.3c-1.7,2.6-2.6,5.5-3,8.6c-0.1,1.1-0.2,2.1-0.3,3.1c0,2.3,0.3,4.6,1,6.7c0.5,2,1.7,3.8,3.4,4.9
			c1.1,0.7,2.2,1.5,3.4,2.1c0.8,0.5,1.5,1,2.2,1.5c0.8,0.6,1.4,1.3,1.8,2.2c0.4,0.8,0.6,1.6,0.5,2.5c-0.2,1.6-0.7,3.2-1.9,4.4
			c-1.1,1.2-2.4,2.1-3.9,2.6c-1.6,0.5-3.2,0.9-4.9,1C7.2,85.4,6.7,85.3,6.2,85.3z"/>
		<path class="st1" d="M30.4,84.3c-2-1.3-3.4-3.1-4.2-5.3c-0.6-1.6-0.9-3.3-1.1-5c-0.3-1.9-0.5-3.8-0.6-5.7l-0.2-4
			c0-2.7,0.3-5.4,0.7-8.1c0.7-4,2-7.7,4.1-11c0.8-1.3,1.8-2.5,2.9-3.6c1.4-1.3,3.1-1.9,5-1.8c0.3,0.1,0.7,0.1,1,0.2
			c1.3,0.3,2.4,0.8,3.5,1.5c0.7,0.4,1.1,1,1.5,1.7c0.1,0.1,0.2,0.3,0.3,0.5c0.1,0.7-0.4,1.3-1.1,1.2c-0.5-0.1-1.1-0.3-1.3-0.9
			c-0.2-0.4-0.5-0.7-0.9-0.9c-0.4-0.3-0.9-0.3-1.3-0.1c-0.8,0.3-1.4,0.7-1.9,1.4s-1.1,1.5-1.6,2.2c-1.3,2-2.4,4.2-3.2,6.4
			c-0.7,1.7-1,3.6-1.3,5.3c-0.5,2.8-0.5,5.7-0.5,8.6c0,1,0.2,1.9,0.3,2.9l0.2,2.4c0.2,2,0.5,3.9,1.1,5.8c0.4,1.3,1.1,2.4,1.9,3.4
			c0.7,0.9,1.6,1.4,2.6,1.7c0.3,0.1,0.5,0.1,0.7-0.1c0.3-0.2,0.7-0.5,0.9-0.8c0.7-0.9,1.1-1.9,1.5-3c0.1-0.3,0.2-0.6,0.3-0.9
			c0.3-0.7,0.8-1.3,1.5-1.7c0.5-0.2,0.8-0.1,1.1,0.1c0.5,0.4,0.7,0.9,0.7,1.4c-0.1,0.3,0,0.6-0.1,0.9c-0.3,1.6-0.9,3-1.6,4.4
			c-0.5,0.8-1.1,1.4-2,1.8c-1.1,0.5-2.2,0.7-3.4,0.7C34,85.8,32.1,85.3,30.4,84.3z"/>
		<path class="st1" d="M49.7,85.3c-0.3-0.1-0.5-0.5-0.5-0.8c-0.1-0.3-0.1-0.5-0.1-0.7v-5.1c-0.1-2.6-0.1-5.2-0.2-7.8
			c-0.3-4.1-0.4-8.2-0.3-12.3c0.1-2.7,0.1-5.4,0.1-8.1c0.1-2.8,0.1-5.6,0.1-8.4c0-0.3,0-0.6,0.1-0.9c0.1-0.5,0.3-0.9,0.9-1.1
			c0.3-0.1,0.6-0.1,0.9-0.1c1,0.1,2,0.5,2.8,1.1c0.7,0.5,1.1,1.1,1.1,2c-0.1,4-0.1,7.9-0.1,10.8c0,3.2-0.1,5.3-0.1,7.5
			c0,2.1,0.1,4.2,0.2,6.3v0.1l0.2,4.3L55,83.3v0.3c0,1.1-0.2,1.4-1.2,1.8c-1.1,0.5-2.3,0.6-3.5,0.3C50.2,85.5,49.9,85.4,49.7,85.3z"
			/>
		<path class="st1" d="M65.2,85.8c-2.3-0.9-3.6-2.6-4.2-4.9c-0.4-1.5-0.5-2.9-0.5-4.4V63.6v-1h0.1c0-1.8-0.1-3.7,0-5.5
			c0-3,0.1-6.1,0.1-9.2c0.1-1.5,0.1-2.9,0.2-4.4c0-0.8,0.2-1.6,0.5-2.4c0.3-0.6,0.7-1,1.6-0.9c0.1,0,0.3,0.1,0.5,0.1
			c0.8,0.2,1.5,0.2,2.3,0.1c1-0.2,2,0,3,0.1c1.2,0.1,2.3,0.3,3.5,0.3c0.7,0,1.3,0.2,1.7,0.6c0.2,0.1,0.3,0.3,0.4,0.5
			c0.3,0.5,0.1,1.1-0.5,1.2c-0.5,0.1-0.9,0.1-1.5,0.1c-1.5,0.1-3,0.1-4.6,0.1c-0.3,0-0.6,0.1-0.9,0.1c-0.3,0.1-0.4,0.2-0.4,0.5
			c0.2,1.8,0,3.6-0.1,5.3c-0.2,4.2,0,8.3-0.1,12.4v0.3c0,0.2,0.1,0.3,0.3,0.3c0.3,0,0.5,0,0.7-0.1c1.1,0,2-0.1,3.1-0.1
			c1,0,1.9,0.4,2.7,1.1c0.2,0.1,0.4,0.3,0.5,0.5c0.3,0.5,0.1,0.9-0.5,1l-1.6,0.2c-1.6,0.2-3.2,0.4-4.8,0.7c-0.4,0.1-0.5,0.1-0.5,0.5
			c0,1.3,0.1,2.6,0.1,4v7.4c0,1.2,0.2,2.4,0.5,3.5c0.3,0.7,0.7,1.3,1.1,1.8c0.7,0.8,1.5,1,2.4,0.9c1.1-0.1,2.3-0.3,3.4-0.5l1.2-0.2
			c0.6-0.2,1.2-0.3,1.8-0.3c0.5,0.1,0.9,0.1,1.3,0.4c0.5,0.3,0.6,0.8,0.2,1.2c-0.3,0.3-0.6,0.5-0.9,0.7c-0.7,0.4-1.5,0.6-2.3,0.8
			c-2.2,0.5-4.6,0.9-6.9,0.8C67.2,86.3,66.2,86.2,65.2,85.8z"/>
		<path class="st1" d="M100.1,85.3c-0.1-0.3-0.3-0.4-0.6-0.4c-0.5,0-0.9-0.3-1-0.8c-0.2-0.5-0.3-1.1-0.5-1.6
			c-0.7-2.4-1.5-4.8-2.2-7.2c-1.1-3.2-1.9-6.5-2.8-9.9L90.5,55c0-0.1-0.1-0.1-0.1-0.3c-0.2,1.3-0.3,2.6-0.2,3.8l0.1,10.4
			c0,1.8-0.1,3.6-0.1,5.4c0,1,0,2,0.1,3l0.1,4.1v0.7c-0.1,1-0.5,1.8-1.3,2.2c-0.7,0.5-1.6,0.7-2.5,0.8c-0.1,0.1-0.1,0.1-0.1,0.1
			c-1.1-0.1-1.7-0.3-1.8-1.7c-0.1-2.5-0.1-5-0.1-7.5l-0.1-0.8c0.1-4.8-0.1-9.6-0.3-14.5c-0.1-1.6,0-3.2,0.1-4.8
			c0.1-0.7,0-1.5,0.1-2.2l0.3-3.4c0.1-0.9,0.1-1.8,0.2-2.8c0.1-1.5,0-2.8,0.3-4.2c0-0.3-0.1-0.7-0.1-0.9c0-0.5,0.2-0.7,0.5-1
			c0.9-0.7,1.9-0.9,3-0.5c0.5,0.1,0.9,0.3,1.3,0.5c0.3,0.2,0.6,0.5,0.8,0.8c0.1,0.2,0.1,0.4,0.3,0.6c1.3,1.7,2,3.7,2.7,5.7
			c1.1,2.9,1.8,5.9,2.6,9c0.4,1.3,0.7,2.7,1.1,4c0.1,0.3,0.1,0.6,0.3,0.9c-0.1-1-0.1-2-0.1-3c-0.1-1.2,0.1-2.4,0.1-3.6
			c0-0.3,0.1-0.5,0.1-0.7c-0.1-1.5,0.1-3,0.2-4.4l0.4-3.4c0.1-0.8,0.1-1.5,0.3-2.2c0.2-1.1,0.3-2.2,0.3-3.2c0-0.3-0.1-0.6,0-0.9
			c0.1-0.3,0.3-0.5,0.6-0.5c0.9-0.1,1.7,0.1,2.4,0.7c0.2,0.2,0.4,0.5,0.5,0.8c0.3,1.3,0.6,2.5,0.7,3.8c0.1,1.4,0.2,2.7,0.4,4v0.7
			c0,1.2,0,2.3-0.1,3.5c0,0.1-0.1,0.3-0.1,0.5l0.1,6.6c0,1.2-0.1,2.4,0,3.6l0.3,10.1c0.1,1.3,0.1,2.6,0.1,4c0,1.6-0.1,3.2-0.3,4.7
			c-0.1,0.6-0.3,1.2-0.7,1.6c-0.6,0.4-1.3,0.7-2,0.9C100.7,85.7,100.3,85.7,100.1,85.3z"/>
		<path class="st1" d="M115.7,84.3c-2-1.3-3.4-3.1-4.2-5.3c-0.6-1.6-0.9-3.3-1.1-5c-0.3-1.9-0.5-3.8-0.6-5.7l-0.2-4
			c0-2.7,0.3-5.4,0.7-8.1c0.7-4,2-7.7,4.1-11c0.8-1.3,1.8-2.5,2.9-3.6c1.4-1.3,3.1-1.9,5-1.8c0.3,0.1,0.7,0.1,1,0.2
			c1.3,0.3,2.4,0.8,3.5,1.5c0.7,0.4,1.1,1,1.5,1.7c0.1,0.1,0.2,0.3,0.3,0.5c0.1,0.7-0.4,1.3-1.1,1.2c-0.5-0.1-1.1-0.3-1.3-0.9
			c-0.2-0.4-0.5-0.7-0.9-0.9c-0.4-0.3-0.9-0.3-1.3-0.1c-0.8,0.3-1.5,0.7-1.9,1.4c-0.5,0.7-1.1,1.5-1.6,2.2c-1.3,2-2.4,4.2-3.2,6.4
			c-0.7,1.7-1,3.6-1.3,5.3c-0.5,2.8-0.5,5.7-0.5,8.6c0,1,0.2,1.9,0.3,2.9l0.2,2.4c0.2,2,0.5,3.9,1.1,5.8c0.4,1.3,1.1,2.4,1.9,3.4
			c0.7,0.9,1.6,1.4,2.6,1.7c0.3,0.1,0.5,0.1,0.7-0.1c0.3-0.2,0.7-0.5,0.9-0.8c0.7-0.9,1.1-1.9,1.5-3c0.1-0.3,0.2-0.6,0.3-0.9
			c0.3-0.7,0.8-1.3,1.5-1.7c0.5-0.2,0.8-0.1,1.1,0.1c0.5,0.4,0.7,0.9,0.7,1.4c-0.1,0.3,0,0.6-0.1,0.9c-0.3,1.6-0.9,3-1.6,4.4
			c-0.5,0.8-1.1,1.4-2,1.8c-1.1,0.5-2.2,0.7-3.4,0.7C119.3,85.8,117.4,85.3,115.7,84.3z"/>
		<path class="st1" d="M138.6,85.8c-2.3-0.9-3.6-2.6-4.2-4.9c-0.4-1.5-0.5-2.9-0.5-4.4V63.6v-1h0.1c0-1.8-0.1-3.7,0-5.5
			c0-3,0.1-6.1,0.1-9.2c0.1-1.5,0.1-2.9,0.2-4.4c0-0.8,0.2-1.6,0.5-2.4c0.3-0.6,0.7-1,1.6-0.9c0.1,0,0.3,0.1,0.5,0.1
			c0.8,0.2,1.5,0.2,2.3,0.1c1-0.2,2,0,3,0.1c1.2,0.1,2.3,0.3,3.5,0.3c0.7,0,1.3,0.2,1.7,0.6c0.2,0.1,0.3,0.3,0.4,0.5
			c0.3,0.5,0.1,1.1-0.5,1.2c-0.5,0.1-0.9,0.1-1.5,0.1c-1.5,0.1-3,0.1-4.6,0.1c-0.3,0-0.6,0.1-0.9,0.1c-0.3,0.1-0.4,0.2-0.4,0.5
			c0.2,1.8,0,3.6-0.1,5.3c-0.2,4.2,0,8.3-0.1,12.4v0.3c0,0.2,0.1,0.3,0.3,0.3c0.3,0,0.5,0,0.7-0.1c1.1,0,2-0.1,3.1-0.1
			c1,0,1.9,0.4,2.7,1.1c0.2,0.1,0.4,0.3,0.5,0.5c0.3,0.5,0.1,0.9-0.5,1l-1.7,0.2c-1.6,0.2-3.2,0.4-4.8,0.7c-0.4,0.1-0.5,0.1-0.5,0.5
			c0,1.3,0.1,2.6,0.1,4v7.4c0,1.2,0.2,2.4,0.5,3.5c0.3,0.7,0.7,1.3,1.1,1.8c0.7,0.8,1.5,1,2.4,0.9c1.1-0.1,2.3-0.3,3.4-0.5l1.2-0.2
			c0.6-0.2,1.2-0.3,1.8-0.3c0.5,0.1,0.9,0.1,1.3,0.4c0.5,0.3,0.6,0.8,0.2,1.2c-0.3,0.3-0.6,0.5-0.9,0.7c-0.7,0.4-1.5,0.6-2.3,0.8
			c-2.2,0.5-4.6,0.9-6.9,0.8C140.7,86.3,139.6,86.2,138.6,85.8z"/>
	</g>
</g>
</svg>
