<?xml version="1.0" encoding="utf-8"?>
<!-- Generator: Adobe Illustrator 24.3.0, SVG Export Plug-In . SVG Version: 6.00 Build 0)  -->
<svg version="1.1" id="OBJECTS" xmlns="http://www.w3.org/2000/svg" xmlns:xlink="http://www.w3.org/1999/xlink" x="0px" y="0px"
	 viewBox="0 0 246.6 86.4" style="enable-background:new 0 0 246.6 86.4;" xml:space="preserve">
<style type="text/css">
	.st0{fill:#07070A;}
	.st1{fill:#ED6068;}
</style>
<g>
	<path class="st0" d="M73.3,39.1c3.4,0.5,5.3,4,4,7.2c-0.2,0.5-0.5,1-0.8,1.4c0.1,0.1,0.1,0.2,0.2,0.3c1.4,3.7-1.2,7.1-4.7,8.2
		c-4.9,1.5-11,0.6-16.3,0.2c0.6,3.7,1,7.5,1.2,11.2c0.2,4.6,0.7,11-3.4,14.2c-4.1,3.2-9.9,1.5-13.8-1.2c-4.8-3.3-7.9-8.5-10.6-13.6
		c-0.3-0.6-0.6-1.2-1-1.9c-2.1,1.3-4.2,2.5-6.3,3.7c-0.2,0.1-0.4,0.1-0.6,0c0.8,3.2-1.2,6.9-4.4,7.9c-3.2,1-7.1-1.1-8-4.4
		c-0.1-0.2-0.1-0.5-0.1-0.7c-4-0.6-8.5-3.3-8.7-7.8c-0.3-5.3,6.1-10.5,9.4-13.9c0.2-0.2,0.4-0.4,0.6-0.6C3.9,47.3-3,43.6,1.6,38
		c3-3.6,9-5.3,13.4-6.2c1.1-0.2,2.2-0.4,3.3-0.5c-0.1-1.6-0.1-3.1,0-4.7c0,0,0-0.1,0-0.1c-3.6-0.1-5.8-2.5-5.2-6.2
		c0.5-3.2,2.9-6.8,6.5-5.8c-0.6-3.9-0.7-9.1,3.3-11.1C28,1,33.7,5.4,36.8,9.1c3.5,4.2,6.1,9.2,8.5,14.2c3.5-1.9,7-3.6,10.7-4.7
		c4.2-1.4,9.3-1.4,12.2,2.5c2.9,3.8,0.3,7.6-2.3,10.8c-1.3,1.7-2.7,3.3-4.1,4.9c2,0.6,4,1.3,6,2C69.5,38.1,71.5,38.1,73.3,39.1z
		 M59.2,55.1c4.2,0.2,19.2,1.9,16.4-6.4c-2,1.7-5,2.2-7.5,1.4c-3.4-1.1-4.7-4.8-3.4-8c0.5-1.1,1.2-2,2.1-2.6
		c-1.9-0.6-3.9-1.1-5.8-1.7c-2.4,2.7-4.9,5.3-7.4,7.7c0.1,0.4,0.2,0.8,0.3,1.2c0.7,2.7,1.3,5.5,1.7,8.3
		C56.7,55.1,57.9,55.1,59.2,55.1z M75.3,47.4c2.4-2.7,1.1-6.7-2.5-7.3c-0.3-0.1-0.4-0.4-0.4-0.7c-1.2-0.3-2.4-0.2-3.6,0.1
		c0,0.2-0.2,0.5-0.5,0.4c-0.1,0-0.2-0.1-0.3-0.1c-0.9,0.5-1.7,1.1-2.2,2.1c-1.4,2.6-0.5,6,2.4,7C70.7,49.8,73.6,49.3,75.3,47.4z
		 M64.2,31.9c2.9-3.6,6.4-8.8,0.9-11.9c-4.1-2.3-8.9-0.2-12.8,1.5c-2.2,1-4.3,2-6.4,3.1c0.4,0.9,0.8,1.8,1.2,2.6
		c0.9,2,1.7,4.1,2.5,6.1c3.6,0.8,7.2,1.8,10.8,2.9C61.7,34.9,62.9,33.4,64.2,31.9z M55.2,76.5c0.8-3,0.5-6.4,0.3-9.5
		c-0.2-3.6-0.6-7.1-1.2-10.6c-0.3,0-0.6,0-0.9-0.1c-3.8-0.2-7.6-0.4-11.4-0.7c-4.1,3.2-8.3,6.2-12.8,9c0.3,0.6,0.6,1.3,1,1.9
		c3,5.6,6.6,11.7,12.5,14.5C47.8,83.3,53.6,82.4,55.2,76.5z M53.1,44c2.2-2.1,4.3-4.4,6.4-6.6c-3.1-0.9-6.2-1.7-9.3-2.4
		C51.2,37.9,52.2,40.9,53.1,44z M54.1,54.9c-0.5-2.8-1.1-5.6-1.8-8.3c-2.8,2.7-5.8,5.2-8.8,7.7C47.1,54.6,50.6,54.8,54.1,54.9z
		 M51.9,45.1C51.9,45.1,52,45.1,51.9,45.1c-1-3.6-2.1-7.1-3.4-10.6c-3.3-0.7-6.6-1.4-10-1.8c-1.8-0.3-3.7-0.4-5.5-0.6
		c-4.1,2.7-8.1,5.7-11.9,8.9c0.3,1.8,0.7,3.6,1.2,5.5c0.5,1.8,1,3.6,1.6,5.4c1.7,0.3,3.4,0.6,5.1,0.8c-2.7-1.8-4.4-5-4.2-8.6
		c0.3-6,5.5-10.2,11.3-10.5c0.1,0,0.1,0,0.2,0c0.7-0.1,1.4-0.1,2.2,0c4.4,0.4,8.1,3.9,8.4,8.7c0.3,5.1-3.7,9.9-8.4,11.5
		c1.1,0.1,2.1,0.2,3.2,0.3C45.2,51.3,48.6,48.3,51.9,45.1z M48,33.1c-1-2.6-2.1-5.1-3.3-7.6c0-0.1-0.1-0.1-0.1-0.2
		C41.3,27.1,38,29,34.8,31C39.2,31.4,43.6,32.1,48,33.1z M45.4,43.9c0.7-6-4.5-9.8-10.2-8.8c-0.3,0.1-0.6-0.1-0.6-0.4
		c-3.8,1.1-7.3,3.6-8.3,7.6c-1.3,5.2,2,10.1,7.3,10.8C39,53.9,44.8,49.3,45.4,43.9z M39.1,26.8c1.6-0.9,3.3-1.9,4.9-2.8
		c-2.6-5.5-5.5-11.4-9.7-15.7c-2.5-2.5-6.3-5.1-10.1-3.9c-4.4,1.4-3.8,6.8-3.3,10.4c2.5,0.4,4.7,2.4,4.8,5.1
		c0.1,3.8-3.3,6.4-6.8,6.6c0.2,1.5,0.4,3.1,0.6,4.6c4.2-0.5,8.5-0.5,12.7-0.3c0.1,0,0.2,0,0.3,0C34.7,29.5,36.9,28.1,39.1,26.8z
		 M28.7,63.3c3.9-2.5,7.7-5.2,11.4-8c-5.2-0.5-10.5-1.2-15.6-2.2C25.7,56.6,27.1,60,28.7,63.3z M30.9,32c-3.7-0.2-7.4-0.1-11,0.3
		c0.3,2.4,0.7,4.8,1.1,7.1C24.1,36.9,27.4,34.4,30.9,32z M18.8,25.3c2.9-0.1,5.9-2.2,5.8-5.4c-0.1-2.7-2.7-4.2-5.1-3.9
		c-0.5,0-0.7-0.5-0.6-0.8c-2.6,0.2-4.2,2.7-4.6,5.3C13.7,23.6,15.6,25.4,18.8,25.3z M27.5,64c-1.8-3.6-3.4-7.3-4.7-11.2
		c-2-0.4-4-0.9-5.9-1.4c-1.1-0.3-3.1-0.8-5.4-1.5c-1.3,1.3-2.5,2.6-3.7,3.9c-2.4,2.6-6.1,5.8-6.2,9.6c-0.1,4.1,3.6,6.4,7.2,7.2
		c0.1-2.4,1.8-4.8,4.1-5.6c0-0.2,0.1-0.5,0.4-0.6c3-0.9,6.4,0.7,7.7,3.5c0.1-0.1,0.1-0.2,0.2-0.2C23.3,66.6,25.4,65.3,27.5,64z
		 M16.1,75.8c2.9-0.6,4.9-3.9,4-6.7c-0.8-2.7-3.7-3.9-6.3-3.7c-2.4,1.1-4.3,3.4-3.9,6.2C10.4,74.4,13.3,76.4,16.1,75.8z M22.3,51.6
		c-1-3.1-1.9-6.2-2.6-9.3c-2.5,2.2-5,4.4-7.3,6.7C15.6,50,19,50.9,22.3,51.6z M19.4,40.7c-0.5-2.7-0.9-5.4-1.1-8.2
		c-1.2,0.2-2.4,0.4-3.6,0.6c-2.8,0.6-5.7,1.5-8.2,2.9c-2.2,1.2-5.3,3-4.6,6.2c0.5,2.5,3.3,3.9,5.4,4.8c1.2,0.5,2.5,1,3.7,1.4
		C13.7,45.8,16.5,43.2,19.4,40.7z"/>
	<path class="st1" d="M72.8,40.1c3.6,0.6,4.9,4.6,2.5,7.3c-1.7,1.9-4.6,2.4-6.9,1.6c-2.9-1-3.8-4.4-2.4-7c0.5-1,1.3-1.7,2.2-2.1
		c0.1,0,0.2,0.1,0.3,0.1c0.3,0.1,0.5-0.1,0.5-0.4c1.1-0.4,2.4-0.4,3.6-0.1C72.4,39.7,72.5,40.1,72.8,40.1z M74.5,46.6
		c1.3-1.7,0.6-4.5-1.5-5.3c-0.3-0.1-0.5,0.4-0.3,0.6c1.4,0.9,1.9,2.8,0.9,4.1C73.2,46.5,74.1,47.2,74.5,46.6z"/>
	<path class="st0" d="M73.1,41.2c2,0.8,2.7,3.6,1.5,5.3c-0.5,0.6-1.3,0-0.8-0.6c1.1-1.4,0.5-3.3-0.9-4.1
		C72.5,41.6,72.7,41.1,73.1,41.2z"/>
	<path class="st1" d="M35.3,35c5.6-1,10.9,2.8,10.2,8.8c-0.6,5.5-6.5,10-11.9,9.3c-5.3-0.7-8.6-5.6-7.3-10.8c1-4,4.5-6.5,8.3-7.6
		C34.7,34.9,34.9,35.1,35.3,35z M43,42.7c0,0.7,1.1,0.7,1,0c-0.3-4.3-4.6-7.4-8.7-5.6c-0.2,0.1-0.1,0.5,0.2,0.4
		C39.2,36.7,42.7,38.7,43,42.7z"/>
	<path class="st0" d="M44,42.7c0.1,0.7-1,0.7-1,0c-0.2-4-3.8-6-7.5-5.1c-0.2,0.1-0.4-0.3-0.2-0.4C39.4,35.3,43.7,38.4,44,42.7z"/>
	<path class="st1" d="M24.5,19.9c0.1,3.2-2.9,5.3-5.8,5.4c-3.1,0.1-5-1.8-4.5-4.9c0.4-2.5,2-5.1,4.6-5.3c-0.1,0.4,0.1,0.9,0.6,0.8
		C21.8,15.8,24.4,17.3,24.5,19.9z M18.2,24.2c0.6,0.1,0.8-0.8,0.2-0.9c-1.5-0.3-2.4-1.9-1.9-3.4c0.1-0.3-0.4-0.5-0.5-0.2
		C15,21.5,16.2,23.9,18.2,24.2z"/>
	<path class="st1" d="M20.1,69.1c0.9,2.8-1.1,6.1-4,6.7c-2.7,0.5-5.7-1.4-6.1-4.2c-0.5-2.8,1.4-5.1,3.9-6.2
		C16.4,65.2,19.2,66.4,20.1,69.1z M19.1,71.4c0.3-2.2-1.5-4.4-3.8-4c-0.4,0-0.3,0.6,0.1,0.6c1.6,0,3,1.5,2.7,3.1
		C18,71.8,19,72.1,19.1,71.4z"/>
	<path class="st0" d="M15.3,67.4c2.3-0.3,4.1,1.8,3.8,4c-0.1,0.7-1.2,0.4-1-0.3c0.3-1.6-1.1-3.1-2.7-3.1C15.1,68,15,67.4,15.3,67.4z
		"/>
	<path class="st0" d="M18.4,23.3c0.6,0.1,0.3,1-0.2,0.9c-2-0.3-3.1-2.7-2.1-4.5c0.2-0.3,0.6-0.1,0.5,0.2C16,21.4,16.9,23,18.4,23.3z
		"/>
</g>
<g>
	<g>
		<path class="st0" d="M98,33.9c-0.5-0.2-0.8-0.6-0.8-1.2c0.1-0.7,0.1-1.4,0.1-2.2c0-1.2,0.1-2.4,0.2-3.6c0.1-2.3,0.1-4.6,0.1-6.9
			c0-2.1,0-4.1,0-6.2c0-1.9,0.1-3.7,0.1-5.6c0-0.8,0-1.7,0-2.6c0-1.6-0.1-3.2,0-4.7c0-0.3,0.2-0.6,0.5-0.7c0.2,0,0.5-0.1,0.7-0.1
			c0.9,0.1,1.8,0.3,2.5,0.9c0.4,0.3,0.6,0.7,0.6,1.2c-0.1,0.7,0,1.4,0,2h-0.1c0.1,1.6,0.1,3.1,0.1,4.6c0,1.1-0.1,2.2-0.1,3.3v4.7
			c0,2.1,0,4.3-0.1,6.4c0,1.4-0.1,2.9-0.1,4.2c-0.1,0.8-0.1,1.7-0.2,2.6c-0.1,0.5-0.1,1-0.1,1.5c0,0.3,0.1,0.4,0.3,0.4
			c0.3,0,0.6,0,1,0c0.6,0,1.3-0.1,1.9-0.2c0.7,0,1.5,0,2.2,0.1c0.2,0,0.4,0.1,0.6,0.3c0.3,0.2,0.3,0.5,0.1,0.7
			c-0.1,0.1-0.2,0.3-0.4,0.3c-0.3,0.1-0.7,0.3-1,0.4c-0.6,0.1-1.3,0.2-1.9,0.2c-0.9,0.1-1.7,0.2-2.6,0.2c-0.9,0-1.8,0-2.7,0
			C98.8,34.2,98.4,34,98,33.9z"/>
		<path class="st0" d="M115.4,34.3c-0.4-0.1-0.9-0.3-1.3-0.5c-0.6-0.2-0.9-0.7-1-1.4c0-0.4-0.1-0.8-0.1-1.2
			c-0.1-1.5-0.1-2.9-0.2-4.4c0-1.3,0-2.6,0-3.9v-0.1h-0.1c0-1.3,0.1-2.5,0-3.7c-0.1-1.5-0.1-3-0.1-4.4c0-1.2,0-2.3,0-3.5
			c0-0.6,0.1-1.2,0.1-1.8c0.1-0.2,0.1-0.3,0.1-0.5c0.1-0.7,0.1-1.4,0.2-2.1c0.1-0.6,0.3-0.8,1-0.8c1.2-0.1,2.3-0.1,3.5,0
			c0.7,0.1,1.4,0.1,2.1,0.2c0.5,0,1,0.1,1.5,0.2c0.2,0,0.4,0.2,0.6,0.3c0.2,0.2,0.2,0.5-0.1,0.7c-0.1,0-0.1,0-0.2,0
			c-1,0.3-2.1,0.5-3.2,0.3c-0.5-0.1-0.9-0.1-1.4-0.1c-0.2,0-0.3,0.1-0.2,0.3l0.1,1c0.2,1.4,0.2,2.8,0.2,4.2v3.6c0,0.4,0,0.4,0.5,0.4
			c0.2,0,0.5,0,0.8-0.1h1.5c0.3,0,0.7,0,1.1,0.1l0.4,0.1c0.4,0.2,0.5,0.5,0.1,0.8c-0.2,0.1-0.4,0.2-0.6,0.2
			c-0.8,0.1-1.6,0.2-2.4,0.4l-1,0.1c-0.1,0-0.2,0.1-0.2,0.3v0.3c0,2.4,0,4.8,0,7.2c0,1.3,0.1,2.7,0.1,4c0,0.2,0.1,0.5,0.1,0.7
			c0,0.4,0.2,0.5,0.5,0.6c0.1,0,0.2,0,0.4,0c0.7,0,1.4,0,2.1,0.1c0.4,0,0.7,0.1,1.1,0.2c0.1,0,0.3,0.1,0.4,0.2
			c0.1,0.1,0.2,0.3,0.1,0.5c-0.1,0.2-0.2,0.3-0.4,0.5c-0.4,0.3-0.9,0.5-1.4,0.6c-1.1,0.2-2.3,0.4-3.4,0.2
			C116.4,34.4,115.9,34.4,115.4,34.3z"/>
		<path class="st0" d="M131.5,34c-0.3-0.1-0.5-0.3-0.6-0.7l-0.1-1.4v-1.5h0c0-2.1,0.1-4.2,0.1-6.3c0-1.5-0.1-3-0.1-4.5
			c0.1-1.5,0.1-3,0.2-4.5c0.1-2,0.2-3.9,0.1-5.9c0-0.3,0.1-0.6,0.1-0.9c0-0.2-0.1-0.3-0.3-0.3c-0.7,0.1-1.5,0-2.2,0
			c-0.4,0-0.8-0.1-1.2-0.3c-0.3-0.2-0.7-0.4-0.6-0.8c0.1-0.4,0.5-0.5,0.8-0.6c0.3-0.1,0.7-0.1,1.1-0.1c1.7,0,3.5-0.1,5.2-0.1
			c0.6,0,1.2,0.1,1.9,0.1c0.6,0,1.1,0,1.7,0c0.5,0,1,0.1,1.5,0.3c0.1,0.1,0.3,0.2,0.4,0.3c0.2,0.2,0.2,0.6-0.1,0.7
			c-0.2,0.1-0.5,0.2-0.7,0.2c-0.2,0-0.5,0-0.7,0c-0.8-0.1-1.7,0.1-2.5,0.1c-0.2,0-0.2,0.1-0.2,0.2c0.3,0.7,0.3,1.4,0.3,2.2
			c0,1.2,0.1,2.5,0,3.7c-0.1,1.6-0.1,3.2-0.1,4.8c-0.1,0.7,0,1.5,0,2.2c0,1.3,0,2.7,0,4.1c0,1.6-0.1,3.2-0.2,4.8v0.9
			c0,0.6-0.1,1.2-0.2,1.8c0,0.4-0.3,0.7-0.6,0.9c-0.8,0.4-1.6,0.6-2.5,0.6C131.7,34.1,131.6,34,131.5,34z"/>
		<path class="st0" d="M144.6,9.1c-0.3-0.4-0.4-0.8-0.4-1.4c0.1-0.3,0.1-0.7,0.2-1c0.4-1.5,0.8-3.1,1.2-4.6c0.1-0.1,0.1-0.2,0.1-0.3
			c0.1-0.4,0.4-0.6,0.8-0.5c0.5,0.1,1,0.3,1.4,0.6c0.3,0.3,0.4,0.7,0.3,1.2L147.7,5l-1,2.8c-0.1,0.3-0.2,0.6-0.4,0.8
			c-0.2,0.4-0.6,0.6-1.1,0.6C145,9.4,144.8,9.3,144.6,9.1z"/>
		<path class="st0" d="M156,34.5c-0.9-0.4-1.7-1-2.3-1.8c-0.3-0.4-0.4-0.9-0.4-1.4l0.2-1.3c0.1-0.4,0.3-0.6,0.7-0.8
			c0.6-0.2,1.3-0.2,1.9,0c0.4,0.1,0.7,0.4,0.7,0.8v0.7c0.1,0.9,0.6,1.6,1.4,2.2c0.1,0.1,0.2,0.1,0.4,0c1-0.4,1.7-1.2,1.9-2.3
			c0.1-0.5,0-1-0.3-1.5l-0.1-0.2c-0.7-0.7-1.4-1.4-2.2-1.9c-0.8-0.5-1.5-1-2.2-1.5c-1.4-1.1-2.1-2.5-2.4-4.1
			c-0.1-0.9-0.2-1.8-0.3-2.7c0-1,0-2,0.1-3c0.1-1.2,0.3-2.4,0.6-3.5c0.4-1.7,1.1-3.3,2.2-4.6c0.9-1.2,2.2-1.8,3.7-1.8
			c1,0,2,0.2,3,0.7c1.4,0.6,2.1,1.8,2.2,3.3c0.1,1.1,0,2.2-0.1,3.2c-0.1,0.7-0.2,1.5-0.3,2.2c-0.1,1-0.4,2-0.9,2.9
			c-0.1,0.3-0.4,0.5-0.7,0.6c-0.7,0.1-1.4,0-2.1-0.3c-0.5-0.2-0.7-0.6-0.7-1.1c0-0.4-0.1-0.7-0.1-1.1c-0.1-1.4,0.2-2.7,0.3-4
			c0.1-0.8,0.1-1.7,0.1-2.5V8.9c-0.1-0.1-0.1-0.1-0.2-0.1c-0.2,0.2-0.4,0.4-0.5,0.6c-0.8,1.2-1.3,2.5-1.6,3.9
			c-0.3,1.4-0.5,2.9-0.6,4.3c0,0.8,0,1.6,0.1,2.5c0,0.4,0,0.8,0.1,1.2c0.2,1.4,1,2.4,2.1,3.3c0.4,0.3,1,0.7,1.5,1
			c0.5,0.3,0.9,0.6,1.4,1c0.9,0.6,1.3,1.6,1.4,2.6c0.2,1.8-0.4,3.3-1.8,4.3c-0.8,0.6-1.7,1.1-2.8,1.3C158.3,35,157.1,35,156,34.5z"
			/>
		<path class="st0" d="M190.2,33.7c-0.2-0.1-0.4-0.3-0.4-0.5c0-0.2-0.1-0.4-0.1-0.6c0-1.1-0.1-2.3-0.1-3.5c-0.1-1.5-0.1-3.1-0.1-4.7
			c0-1.4,0.1-2.7,0.1-4.1c0-4.4,0-8.8,0-13.2c0-1.4,0.1-2.8,0.1-4.1V2.8c0-0.4-0.1-0.4-0.5-0.4c-0.9-0.1-1.8,0-2.8,0
			c-0.6,0-1.1-0.1-1.7-0.4c-0.2-0.1-0.3-0.2-0.5-0.3c-0.4-0.4-0.3-0.7,0.1-0.9c0.2-0.1,0.5-0.1,0.7-0.2c1.3-0.2,2.7-0.2,4-0.2
			c1.3,0,2.6-0.2,3.9-0.2h0.5c1,0,2.1,0,3.2,0c0.6,0,1.3,0.2,1.9,0.5c0.2,0.1,0.4,0.2,0.6,0.4c0.3,0.3,0.2,0.7-0.1,0.8
			c-0.1,0-0.2,0.1-0.4,0.1h-0.5c-1.2,0-2.5-0.1-3.7,0.1c-0.3,0-0.4,0-0.4,0.4v4.6v4H194v8.1c0,1.4-0.1,2.8-0.1,4.2
			c-0.1,0.9,0,1.8,0,2.7c0,0.2,0,0.4,0,0.6c0,1.7,0,3.3,0.1,4.9c0,0.7-0.2,1.2-0.8,1.6c-0.7,0.4-1.4,0.7-2.2,0.7
			C190.7,33.9,190.5,33.8,190.2,33.7z"/>
		<path class="st0" d="M209.3,33.6c-0.1-0.4-0.3-0.8-0.3-1.2c-0.1-0.4-0.1-0.8-0.1-1.2c-0.1-1.5-0.1-2.9-0.1-4.3
			c0-1.1,0-2.3-0.1-3.5c0-0.2,0-0.2-0.2-0.2h-1.5l-1.9,0.1c-0.2,0-0.3,0.1-0.3,0.3c0,0.4-0.1,0.9-0.1,1.3c-0.1,1.5-0.1,2.9-0.2,4.4
			c-0.1,1-0.1,2-0.3,3c0,0.2-0.1,0.4-0.2,0.6c-0.1,0.2-0.2,0.4-0.4,0.5c-0.5,0.3-1.1,0.4-1.7,0.1c-0.3-0.1-0.5-0.2-0.6-0.5
			c-0.1-0.2-0.1-0.5-0.1-0.7c0-0.9,0-1.7,0-2.6c0-0.4,0.1-0.7,0.1-1.1c0-1.3,0-2.6,0-3.9c0.1-1.5,0.1-3,0.2-4.4
			c0.1-0.8,0.1-1.5,0.1-2.3c0.2-2.1,0.4-4.2,1-6.3c0.4-1.7,1.1-3.2,2.2-4.5c0.7-0.9,1.6-1.5,2.8-1.6c1.5-0.1,3,0.2,4.1,1.3
			c0.4,0.4,0.7,0.8,0.8,1.4c0.3,0.9,0.4,1.8,0.5,2.8c0.1,1.7,0.2,3.5,0.3,5.2c0,0.4,0.1,0.8,0.1,1.2c0,0.5-0.1,1-0.1,1.6
			c0,0.9,0,1.9,0,2.9c-0.1,1.5-0.1,3-0.1,4.5c0,1.2,0.1,2.5,0.1,3.7c0,0.7,0,1.5-0.1,2.2c-0.1,1-0.6,1.7-1.7,1.9
			c-0.4,0.1-0.9,0.2-1.4,0.1C209.6,34.1,209.4,34,209.3,33.6z M206.7,21.6L206.7,21.6l1.1,0.1c0.2,0,0.3,0,0.5,0
			c0.2,0,0.3-0.1,0.3-0.3c0-0.1,0-0.2,0-0.4v-2.7c0-0.3,0.1-0.7,0-1.1c0-1.7-0.1-3.4-0.2-5.1l-0.1-2.2c-0.1-0.6-0.2-1.2-0.4-1.8
			c-0.1-0.1-0.1-0.1-0.2-0.1L207.7,8c-0.8,1-1.4,2-1.8,3.2c-0.5,1.7-0.7,3.4-0.8,5.2c-0.1,0.7-0.1,1.5-0.2,2.3
			c0,0.9-0.1,1.7-0.2,2.6v0.3c0,0.1,0.1,0.2,0.2,0.2C205.5,21.7,206.1,21.7,206.7,21.6z"/>
		<path class="st0" d="M220.9,34.3l-1.4-0.1c-0.1,0-0.2,0-0.4-0.1c-0.7-0.2-1-0.6-1.1-1.5c0-1.2,0-2.4,0-3.6c0-2-0.1-3.9-0.1-5.9
			c0-2.9,0-5.7,0.1-8.6c0-1.5,0.1-3.1,0.1-4.6c0-0.9,0.1-1.9,0.2-2.8c0-0.1,0-0.3,0.1-0.4c0.2-0.7,0.7-1,1.4-0.9
			c0.5,0,1,0.1,1.4,0.4c0.3,0.1,0.6,0.4,0.7,0.8c0.2,0.9,0.4,1.8,0.5,2.7c0.1,1.5,0.1,3.1,0.1,4.6c-0.1,1.7-0.1,3.4-0.1,5.1v8.9
			c0,0.5,0.1,1.1,0.1,1.6c0,0.5-0.1,1.1-0.1,1.6c0,0.7-0.1,0.7,0.7,0.7h2c0.6,0,1.2,0,1.8,0.1c0.2,0,0.4,0.1,0.6,0.2
			c0.3,0.2,0.3,0.5,0.1,0.8c-0.1,0.1-0.3,0.3-0.5,0.4c-0.8,0.5-1.7,0.6-2.6,0.6h-0.9c-0.5,0-0.9,0-1.4,0
			C221.7,34.4,221.3,34.4,220.9,34.3z"/>
		<path class="st0" d="M233.9,34.4c-0.9-0.3-1.3-0.9-1.3-1.8c-0.1-1,0-2-0.1-3c0-0.8-0.1-1.6-0.1-2.5c0-1,0-2,0-3
			c0-1.6-0.1-3.1-0.1-4.6c0-2.2,0-4.3,0-6.4c0-1.6,0-3.2,0-4.7c0-0.5,0-1,0.1-1.6c0.1-0.4,0.3-0.6,0.7-0.7c0.2-0.1,0.3-0.1,0.5-0.1
			c0.4,0,0.9,0,1.3,0.1c0.8,0.2,1.3,0.7,1.5,1.5c0.1,0.6,0.2,1.2,0.3,1.8v4.5v0.7c0.2-0.3,0.3-0.5,0.4-0.7c0.6-1.3,1.2-2.6,2-3.8
			l1.5-2.4l0.3-0.5c0.1-0.4,0.5-0.7,1-0.8c0.5-0.1,1-0.1,1.4,0.1c0.4,0.2,0.5,0.5,0.2,0.9c-0.6,1.1-1.1,2.3-1.8,3.4
			c-0.6,0.9-1,2-1.5,3c-0.3,0.6-0.7,1.3-1,2c-0.3,0.5-0.3,0.5,0.2,0.6c0.6,0.2,1.2,0.5,1.7,0.9c0.4,0.3,0.8,0.8,1,1.4
			c0.4,1,0.6,2,0.8,3.1c0.2,1.3,0.3,2.6,0.4,3.8c0,1.2,0.2,2.4,0.3,3.6c0,0.8,0.1,1.6,0.1,2.4c0,0.5-0.1,1-0.1,1.6
			c0,0.2-0.1,0.4-0.3,0.5c-0.2,0.1-0.3,0.2-0.5,0.2c-0.8,0.3-1.7,0.2-2.6,0c-0.5-0.2-0.8-0.5-0.8-1.1l-0.3-3.8
			c-0.1-1.2-0.2-2.4-0.3-3.6l-0.3-3c-0.1-1.2-0.4-2.4-0.8-3.5c-0.1-0.3-0.3-0.6-0.7-0.8c-0.2-0.1-0.3-0.1-0.3,0.1v0.5
			c0,2.4,0,4.8,0.1,7.2c0,1.1,0.1,2.3,0.1,3.4c0,0.8,0,1.7,0,2.5v0.8c0,0.9-0.5,1.5-1.4,1.6C235,34.6,234.4,34.6,233.9,34.4z"/>
	</g>
	<g>
		<path class="st1" d="M100.6,85.3c-1.2-0.2-2.3-0.5-3.3-1c-0.6-0.3-1.1-0.7-1.4-1.3c-0.5-0.7-0.5-1.3,0.2-1.8
			c0.9-0.8,1.9-1.1,3-1.2c0.5,0,0.9,0.2,1.3,0.5c0.8,0.7,1.5,1.5,2.6,1.7c0.8,0.2,1.5,0.1,2-0.4c1-0.9,1.8-1.9,2.1-3.2
			c0.2-0.9,0.1-1.6-0.4-2.3c-0.4-0.6-0.9-1.1-1.5-1.5c-1.1-0.8-2.3-1.5-3.4-2.3c-0.6-0.4-1.2-0.7-1.7-1.1c-2.4-1.8-4.2-4.2-4.8-7.1
			c-0.3-1.5-0.6-3-0.8-4.6c-0.1-0.9-0.1-1.8-0.1-2.8c0-4,0.9-7.9,2.8-11.5c0.7-1.2,1.3-2.2,2.3-3.2c0.8-0.8,1.7-1.5,2.8-1.9
			c1.3-0.5,2.6-0.7,4-0.5c0.8,0.1,1.6,0.3,2.4,0.5c1,0.3,1.8,0.7,2.6,1.3c1,0.7,1.5,1.8,1.7,3c0.3,1.6,0.1,3.2-0.1,4.7
			c-0.1,1.5-0.4,3-0.6,4.4c-0.2,1.1-0.5,2.2-0.7,3.3c-0.1,0.5-0.3,1-0.5,1.5c-0.2,0.4-0.5,0.7-0.9,0.9c-1.2,0.6-2.4,0.5-3.5-0.1
			c-0.7-0.3-1.2-0.9-1.1-1.8c0.2-0.9,0.3-1.8,0.5-2.8l0.6-3.8l0.4-3c0.2-1.3,0.2-2.4,0.1-3.7c0-0.1,0-0.1-0.1-0.2
			c-0.3-1.3-0.2-1.4-1.4-0.6c-0.9,0.6-1.5,1.4-2.1,2.3c-1.7,2.6-2.6,5.5-3,8.6c-0.1,1.1-0.2,2.1-0.3,3.1c0,2.3,0.3,4.6,1,6.7
			c0.5,2,1.7,3.8,3.4,4.9c1.1,0.7,2.2,1.5,3.4,2.1c0.8,0.5,1.5,1,2.2,1.5c0.8,0.6,1.4,1.3,1.8,2.2c0.4,0.8,0.6,1.6,0.5,2.5
			c-0.2,1.6-0.7,3.2-1.9,4.4c-1.1,1.2-2.4,2.1-3.9,2.6c-1.6,0.5-3.2,0.9-4.9,1C101.6,85.4,101.1,85.3,100.6,85.3z"/>
		<path class="st1" d="M124.8,84.3c-2-1.3-3.4-3.1-4.2-5.3c-0.6-1.6-0.9-3.3-1.1-5c-0.3-1.9-0.5-3.8-0.6-5.7l-0.2-4
			c0-2.7,0.3-5.4,0.7-8.1c0.7-4,2-7.7,4.1-11c0.8-1.3,1.8-2.5,2.9-3.6c1.4-1.3,3.1-1.9,5-1.8c0.3,0.1,0.7,0.1,1,0.2
			c1.3,0.3,2.4,0.8,3.5,1.5c0.7,0.4,1.1,1,1.5,1.7c0.1,0.1,0.2,0.3,0.3,0.5c0.1,0.7-0.4,1.3-1.1,1.2c-0.5-0.1-1.1-0.3-1.3-0.9
			c-0.2-0.4-0.5-0.7-0.9-0.9c-0.4-0.3-0.9-0.3-1.3-0.1c-0.8,0.3-1.4,0.7-1.9,1.4c-0.5,0.7-1.1,1.5-1.6,2.2c-1.3,2-2.4,4.2-3.2,6.4
			c-0.7,1.7-1,3.6-1.3,5.3c-0.5,2.8-0.5,5.7-0.5,8.6c0,1,0.2,1.9,0.3,2.9l0.2,2.4c0.2,2,0.5,3.9,1.1,5.8c0.4,1.3,1.1,2.4,1.9,3.4
			c0.7,0.9,1.6,1.4,2.6,1.7c0.3,0.1,0.5,0.1,0.7-0.1c0.3-0.2,0.7-0.5,0.9-0.8c0.7-0.9,1.1-1.9,1.5-3c0.1-0.3,0.2-0.6,0.3-0.9
			c0.3-0.7,0.8-1.3,1.5-1.7c0.5-0.2,0.8-0.1,1.1,0.1c0.5,0.4,0.7,0.9,0.7,1.4c-0.1,0.3,0,0.6-0.1,0.9c-0.3,1.6-0.9,3-1.6,4.4
			c-0.5,0.8-1.1,1.4-2,1.8c-1.1,0.5-2.2,0.7-3.4,0.7C128.4,85.8,126.5,85.3,124.8,84.3z"/>
		<path class="st1" d="M144.1,85.3c-0.3-0.1-0.5-0.5-0.5-0.8c-0.1-0.3-0.1-0.5-0.1-0.7v-5.1c-0.1-2.6-0.1-5.2-0.2-7.8
			c-0.3-4.1-0.4-8.2-0.3-12.3c0.1-2.7,0.1-5.4,0.1-8.1c0.1-2.8,0.1-5.6,0.1-8.4c0-0.3,0-0.6,0.1-0.9c0.1-0.5,0.3-0.9,0.9-1.1
			c0.3-0.1,0.6-0.1,0.9-0.1c1,0.1,2,0.5,2.8,1.1c0.7,0.5,1.1,1.1,1.1,2c-0.1,4-0.1,7.9-0.1,10.8c0,3.2-0.1,5.3-0.1,7.5
			c0,2.1,0.1,4.2,0.2,6.3v0.1l0.2,4.3l0.2,11.2v0.3c0,1.1-0.2,1.4-1.2,1.8c-1.1,0.5-2.3,0.6-3.5,0.3
			C144.6,85.5,144.3,85.4,144.1,85.3z"/>
		<path class="st1" d="M159.6,85.8c-2.3-0.9-3.6-2.6-4.2-4.9c-0.4-1.5-0.5-2.9-0.5-4.4V63.6v-1h0.1c0-1.8-0.1-3.7,0-5.5
			c0-3,0.1-6.1,0.1-9.2c0.1-1.5,0.1-2.9,0.2-4.4c0-0.8,0.2-1.6,0.5-2.4c0.3-0.6,0.7-1,1.6-0.9c0.1,0,0.3,0.1,0.5,0.1
			c0.8,0.2,1.5,0.2,2.3,0.1c1-0.2,2,0,3,0.1c1.2,0.1,2.3,0.3,3.5,0.3c0.7,0,1.3,0.2,1.7,0.6c0.2,0.1,0.3,0.3,0.4,0.5
			c0.3,0.5,0.1,1.1-0.5,1.2c-0.5,0.1-0.9,0.1-1.5,0.1c-1.5,0.1-3,0.1-4.6,0.1c-0.3,0-0.6,0.1-0.9,0.1c-0.3,0.1-0.4,0.2-0.4,0.5
			c0.2,1.8,0,3.6-0.1,5.3c-0.2,4.2,0,8.3-0.1,12.4v0.3c0,0.2,0.1,0.3,0.3,0.3c0.3,0,0.5,0,0.7-0.1c1.1,0,2-0.1,3.1-0.1
			c1,0,1.9,0.4,2.7,1.1c0.2,0.1,0.4,0.3,0.5,0.5c0.3,0.5,0.1,0.9-0.5,1l-1.6,0.2c-1.6,0.2-3.2,0.4-4.8,0.7c-0.4,0.1-0.5,0.1-0.5,0.5
			c0,1.3,0.1,2.6,0.1,4v7.4c0,1.2,0.2,2.4,0.5,3.5c0.3,0.7,0.7,1.3,1.1,1.8c0.7,0.8,1.5,1,2.4,0.9c1.1-0.1,2.3-0.3,3.4-0.5l1.2-0.2
			c0.6-0.2,1.2-0.3,1.8-0.3c0.5,0.1,0.9,0.1,1.3,0.4c0.5,0.3,0.6,0.8,0.2,1.2c-0.3,0.3-0.6,0.5-0.9,0.7c-0.7,0.4-1.5,0.6-2.3,0.8
			c-2.2,0.5-4.6,0.9-6.9,0.8C161.6,86.3,160.6,86.2,159.6,85.8z"/>
		<path class="st1" d="M194.5,85.3c-0.1-0.3-0.3-0.4-0.6-0.4c-0.5,0-0.9-0.3-1-0.8c-0.2-0.5-0.3-1.1-0.5-1.6
			c-0.7-2.4-1.5-4.8-2.2-7.2c-1.1-3.2-1.9-6.5-2.8-9.9L184.9,55c0-0.1-0.1-0.1-0.1-0.3c-0.2,1.3-0.3,2.6-0.2,3.8l0.1,10.4
			c0,1.8-0.1,3.6-0.1,5.4c0,1,0,2,0.1,3l0.1,4.1v0.7c-0.1,1-0.5,1.8-1.3,2.2c-0.7,0.5-1.6,0.7-2.5,0.8c-0.1,0.1-0.1,0.1-0.1,0.1
			c-1.1-0.1-1.7-0.3-1.8-1.7c-0.1-2.5-0.1-5-0.1-7.5l-0.1-0.8c0.1-4.8-0.1-9.6-0.3-14.5c-0.1-1.6,0-3.2,0.1-4.8
			c0.1-0.7,0-1.5,0.1-2.2l0.3-3.4c0.1-0.9,0.1-1.8,0.2-2.8c0.1-1.5,0-2.8,0.3-4.2c0-0.3-0.1-0.7-0.1-0.9c0-0.5,0.2-0.7,0.5-1
			c0.9-0.7,1.9-0.9,3-0.5c0.5,0.1,0.9,0.3,1.3,0.5c0.3,0.2,0.6,0.5,0.8,0.8c0.1,0.2,0.1,0.4,0.3,0.6c1.3,1.7,2,3.7,2.7,5.7
			c1.1,2.9,1.8,5.9,2.6,9c0.4,1.3,0.7,2.7,1.1,4c0.1,0.3,0.1,0.6,0.3,0.9c-0.1-1-0.1-2-0.1-3c-0.1-1.2,0.1-2.4,0.1-3.6
			c0-0.3,0.1-0.5,0.1-0.7c-0.1-1.5,0.1-3,0.2-4.4l0.4-3.4c0.1-0.8,0.1-1.5,0.3-2.2c0.2-1.1,0.3-2.2,0.3-3.2c0-0.3-0.1-0.6,0-0.9
			c0.1-0.3,0.3-0.5,0.6-0.5c0.9-0.1,1.7,0.1,2.4,0.7c0.2,0.2,0.4,0.5,0.5,0.8c0.3,1.3,0.6,2.5,0.7,3.8c0.1,1.4,0.2,2.7,0.4,4v0.7
			c0,1.2,0,2.3-0.1,3.5c0,0.1-0.1,0.3-0.1,0.5l0.1,6.6c0,1.2-0.1,2.4,0,3.6l0.3,10.1c0.1,1.3,0.1,2.6,0.1,4c0,1.6-0.1,3.2-0.3,4.7
			c-0.1,0.6-0.3,1.2-0.7,1.6c-0.6,0.4-1.3,0.7-2,0.9C195.1,85.7,194.7,85.7,194.5,85.3z"/>
		<path class="st1" d="M210.1,84.3c-2-1.3-3.4-3.1-4.2-5.3c-0.6-1.6-0.9-3.3-1.1-5c-0.3-1.9-0.5-3.8-0.6-5.7l-0.2-4
			c0-2.7,0.3-5.4,0.7-8.1c0.7-4,2-7.7,4.1-11c0.8-1.3,1.8-2.5,2.9-3.6c1.4-1.3,3.1-1.9,5-1.8c0.3,0.1,0.7,0.1,1,0.2
			c1.3,0.3,2.4,0.8,3.5,1.5c0.7,0.4,1.1,1,1.5,1.7c0.1,0.1,0.2,0.3,0.3,0.5c0.1,0.7-0.4,1.3-1.1,1.2c-0.5-0.1-1.1-0.3-1.3-0.9
			c-0.2-0.4-0.5-0.7-0.9-0.9c-0.4-0.3-0.9-0.3-1.3-0.1c-0.8,0.3-1.5,0.7-1.9,1.4c-0.5,0.7-1.1,1.5-1.6,2.2c-1.3,2-2.4,4.2-3.2,6.4
			c-0.7,1.7-1,3.6-1.3,5.3c-0.5,2.8-0.5,5.7-0.5,8.6c0,1,0.2,1.9,0.3,2.9l0.2,2.4c0.2,2,0.5,3.9,1.1,5.8c0.4,1.3,1.1,2.4,1.9,3.4
			c0.7,0.9,1.6,1.4,2.6,1.7c0.3,0.1,0.5,0.1,0.7-0.1c0.3-0.2,0.7-0.5,0.9-0.8c0.7-0.9,1.1-1.9,1.5-3c0.1-0.3,0.2-0.6,0.3-0.9
			c0.3-0.7,0.8-1.3,1.5-1.7c0.5-0.2,0.8-0.1,1.1,0.1c0.5,0.4,0.7,0.9,0.7,1.4c-0.1,0.3,0,0.6-0.1,0.9c-0.3,1.6-0.9,3-1.6,4.4
			c-0.5,0.8-1.1,1.4-2,1.8c-1.1,0.5-2.2,0.7-3.4,0.7C213.7,85.8,211.8,85.3,210.1,84.3z"/>
		<path class="st1" d="M233,85.8c-2.3-0.9-3.6-2.6-4.2-4.9c-0.4-1.5-0.5-2.9-0.5-4.4V63.6v-1h0.1c0-1.8-0.1-3.7,0-5.5
			c0-3,0.1-6.1,0.1-9.2c0.1-1.5,0.1-2.9,0.2-4.4c0-0.8,0.2-1.6,0.5-2.4c0.3-0.6,0.7-1,1.6-0.9c0.1,0,0.3,0.1,0.5,0.1
			c0.8,0.2,1.5,0.2,2.3,0.1c1-0.2,2,0,3,0.1c1.2,0.1,2.3,0.3,3.5,0.3c0.7,0,1.3,0.2,1.7,0.6c0.2,0.1,0.3,0.3,0.4,0.5
			c0.3,0.5,0.1,1.1-0.5,1.2c-0.5,0.1-0.9,0.1-1.5,0.1c-1.5,0.1-3,0.1-4.6,0.1c-0.3,0-0.6,0.1-0.9,0.1c-0.3,0.1-0.4,0.2-0.4,0.5
			c0.2,1.8,0,3.6-0.1,5.3c-0.2,4.2,0,8.3-0.1,12.4v0.3c0,0.2,0.1,0.3,0.3,0.3c0.3,0,0.5,0,0.7-0.1c1.1,0,2-0.1,3.1-0.1
			c1,0,1.9,0.4,2.7,1.1c0.2,0.1,0.4,0.3,0.5,0.5c0.3,0.5,0.1,0.9-0.5,1l-1.7,0.2c-1.6,0.2-3.2,0.4-4.8,0.7c-0.4,0.1-0.5,0.1-0.5,0.5
			c0,1.3,0.1,2.6,0.1,4v7.4c0,1.2,0.2,2.4,0.5,3.5c0.3,0.7,0.7,1.3,1.1,1.8c0.7,0.8,1.5,1,2.4,0.9c1.1-0.1,2.3-0.3,3.4-0.5l1.2-0.2
			c0.6-0.2,1.2-0.3,1.8-0.3c0.5,0.1,0.9,0.1,1.3,0.4c0.5,0.3,0.6,0.8,0.2,1.2c-0.3,0.3-0.6,0.5-0.9,0.7c-0.7,0.4-1.5,0.6-2.3,0.8
			c-2.2,0.5-4.6,0.9-6.9,0.8C235.1,86.3,234,86.2,233,85.8z"/>
	</g>
</g>
</svg>
